<svg xmlns="http://www.w3.org/2000/svg" version="1.1" xmlns:xlink="http://www.w3.org/1999/xlink" width="510" height="409"><svg width="510" height="409" viewBox="0 0 510 409" fill="none" xmlns="http://www.w3.org/2000/svg">
<path d="M510 229.93C510 227.278 508.946 224.734 507.071 222.859C505.196 220.984 502.652 219.93 500 219.93H483C481.661 214.641 480.053 209.424 478.18 204.3L499 197.64C500.329 197.31 501.576 196.71 502.664 195.877C503.751 195.045 504.657 193.998 505.323 192.802C505.99 191.605 506.403 190.285 506.538 188.922C506.673 187.559 506.527 186.183 506.108 184.879C505.69 183.575 505.008 182.371 504.104 181.341C503.201 180.311 502.096 179.478 500.858 178.893C499.619 178.309 498.274 177.984 496.905 177.941C495.536 177.897 494.173 178.135 492.9 178.64L470.72 185.74C469.387 182.633 468.01 179.477 466.59 176.27C464.22 170.89 461.76 165.27 459.27 159.33C470 150.18 490.64 129.33 492.99 102.86C494.59 84.76 487.57 67.72 472.14 52.21C460.21 40.21 443.35 35.21 423.37 37.56C415.459 38.5462 407.699 40.4939 400.26 43.36C397.46 41.18 394.44 38.97 391.18 36.76C346.75 6.70003 292.6 0.400024 255 0.400024C186.88 0.400024 143.34 20.15 118.82 36.71C115.56 38.92 112.54 41.13 109.74 43.31C102.301 40.4439 94.5406 38.4962 86.63 37.51C66.63 35.11 49.79 40.18 37.86 52.16C22.43 67.67 15.41 84.71 17 102.81C19.35 129.3 40 150.13 50.72 159.28C48.23 165.22 45.77 170.84 43.4 176.22C41.9933 179.433 40.6167 182.59 39.27 185.69L17.09 178.59C15.8169 178.085 14.4537 177.847 13.0848 177.891C11.7159 177.934 10.3706 178.258 9.1322 178.843C7.89382 179.428 6.78879 180.261 5.88562 181.291C4.98245 182.321 4.3004 183.525 3.88174 184.829C3.46308 186.133 3.31675 187.509 3.45181 188.872C3.58688 190.235 4.00046 191.555 4.66691 192.752C5.33337 193.948 6.2385 194.995 7.32618 195.827C8.41385 196.66 9.6609 197.26 10.99 197.59L31.8 204.25C29.9326 209.391 28.3304 214.625 27 219.93H10C7.34784 219.93 4.8043 220.984 2.92893 222.859C1.05357 224.734 0 227.278 0 229.93C0 232.582 1.05357 235.126 2.92893 237.001C4.8043 238.876 7.34784 239.93 10 239.93H23.76C23.3411 246.098 23.4482 252.29 24.08 258.44L11.24 263.44C8.76818 264.403 6.78005 266.308 5.71297 268.737C4.64589 271.165 4.58726 273.918 5.55 276.39C6.51274 278.862 8.41797 280.85 10.8466 281.917C13.2752 282.984 16.0282 283.043 18.5 282.08L27.78 278.47C28.85 282.53 30.12 286.73 31.65 291.09C41.45 319.19 59.56 342.89 85.46 361.54C105.79 376.17 130.91 387.69 160.14 395.77C208.58 409.18 251.55 408.64 254.63 408.59H257.63C288.803 408.244 319.805 403.933 349.89 395.76C379.12 387.68 404.24 376.16 424.57 361.53C450.47 342.88 468.57 319.18 478.38 291.08C479.91 286.72 481.18 282.52 482.25 278.46L491.53 282.07C492.754 282.547 494.06 282.778 495.373 282.75C496.686 282.722 497.981 282.435 499.183 281.907C500.386 281.379 501.473 280.619 502.381 279.67C503.29 278.722 504.003 277.604 504.48 276.38C504.957 275.156 505.188 273.85 505.16 272.537C505.132 271.224 504.845 269.929 504.317 268.727C503.789 267.524 503.029 266.437 502.08 265.529C501.132 264.62 500.014 263.907 498.79 263.43L485.95 258.43C486.582 252.28 486.689 246.088 486.27 239.92H500C502.65 239.92 505.192 238.868 507.068 236.995C508.943 235.121 509.997 232.58 510 229.93ZM413.05 345.16C394.72 358.4 371.82 368.9 345 376.37C315.887 384.289 285.87 388.397 255.7 388.59H254.35C224.164 388.394 194.13 384.287 165 376.37C138.16 368.9 115.26 358.37 96.93 345.16C74.53 328.98 58.93 308.57 50.51 284.5C36 242.88 46.24 219.56 61.73 184.26C69.37 166.84 78.03 147.1 85.46 121.55C86.1336 119.022 85.7898 116.331 84.5023 114.054C83.2148 111.776 81.0861 110.094 78.5728 109.368C76.0595 108.642 73.3617 108.93 71.058 110.169C68.7544 111.409 67.0283 113.502 66.25 116C63.82 124.38 61.25 132.13 58.57 139.39C49.82 130.91 38.31 116.92 36.93 101.01C35.93 88.92 40.82 77.57 52.04 66.3C63.65 54.64 81.17 56.17 92.62 58.93C84.31 67.83 80.62 74.27 80.35 74.73C79.0438 77.0387 78.7082 79.7718 79.4171 82.3279C80.126 84.884 81.8213 87.0538 84.13 88.36C86.4387 89.6662 89.1717 90.0018 91.7279 89.2929C94.284 88.584 96.4538 86.8887 97.76 84.58C97.85 84.42 107.27 68.39 131.11 52.58C171.2 26 220.61 20.4 255 20.4C317.31 20.4 356.77 37.88 378.89 52.56C402.66 68.31 412.09 84.29 412.24 84.56C413.546 86.8687 415.716 88.564 418.272 89.2729C420.828 89.9818 423.561 89.6462 425.87 88.34C428.179 87.0338 429.874 84.864 430.583 82.3079C431.292 79.7518 430.956 77.0187 429.65 74.71C429.39 74.25 425.65 67.81 417.38 58.91C428.83 56.15 446.38 54.62 457.96 66.28C469.18 77.55 474.12 88.9 473.07 100.99C471.69 116.9 460.18 130.89 451.43 139.37C448.78 132.11 446.18 124.37 443.75 115.98C443.384 114.719 442.772 113.542 441.951 112.517C441.13 111.492 440.115 110.638 438.964 110.005C437.813 109.373 436.549 108.973 435.243 108.828C433.937 108.684 432.616 108.799 431.355 109.165C430.094 109.531 428.917 110.143 427.892 110.964C426.867 111.785 426.013 112.8 425.38 113.951C424.748 115.102 424.348 116.366 424.203 117.672C424.059 118.978 424.174 120.299 424.54 121.56C431.97 147.11 440.63 166.85 448.27 184.27C463.76 219.57 474 242.89 459.47 284.51C451.07 308.57 435.45 329 413.05 345.16Z" fill="black"></path>
<path d="M255.77 238.92C263.673 239.021 271.459 237.016 278.33 233.11C286.93 227.98 291.67 220.04 291.67 210.77C291.67 192.77 273.22 173.7 255.77 173.7C238.32 173.7 219.87 192.76 219.87 210.77C219.87 229.25 237.93 238.92 255.77 238.92Z" fill="black"></path>
<path d="M173.7 172.79C173.702 167.603 172.165 162.533 169.285 158.219C166.405 153.906 162.31 150.544 157.518 148.558C152.727 146.572 147.454 146.052 142.367 147.063C137.28 148.075 132.607 150.572 128.939 154.24C125.272 157.907 122.774 162.58 121.763 167.667C120.752 172.754 121.272 178.027 123.258 182.819C125.243 187.61 128.606 191.705 132.919 194.585C137.232 197.466 142.303 199.002 147.49 199C154.439 198.992 161.101 196.228 166.014 191.315C170.928 186.401 173.692 179.739 173.7 172.79Z" fill="black"></path>
<path d="M366.84 146.57C361.654 146.568 356.583 148.104 352.27 150.984C347.957 153.864 344.595 157.958 342.609 162.749C340.623 167.54 340.102 172.812 341.112 177.899C342.123 182.986 344.619 187.659 348.286 191.327C351.953 194.995 356.624 197.493 361.711 198.505C366.797 199.518 372.07 198.999 376.862 197.015C381.653 195.031 385.749 191.67 388.63 187.358C391.512 183.046 393.05 177.976 393.05 172.79C393.042 165.84 390.278 159.177 385.365 154.262C380.452 149.347 373.79 146.581 366.84 146.57Z" fill="black"></path>
<path d="M344.15 275.19C341.512 275.19 338.98 276.233 337.107 278.091C335.234 279.949 334.171 282.472 334.15 285.11C334.009 287.826 333.362 290.492 332.24 292.97C330.43 296.68 327.88 298.2 323.43 298.2C314.65 298.2 297.5 294.55 275.12 287.93C262.009 284.04 248.051 284.04 234.94 287.93C212.56 294.55 195.41 298.2 186.63 298.2C182.18 298.2 179.63 296.68 177.82 292.97C176.704 290.519 176.06 287.88 175.92 285.19C175.92 282.538 174.866 279.994 172.991 278.119C171.116 276.244 168.572 275.19 165.92 275.19C163.268 275.19 160.724 276.244 158.849 278.119C156.973 279.994 155.92 282.538 155.92 285.19C156.064 290.559 157.256 295.849 159.43 300.76C164.5 311.95 174.16 318.12 186.63 318.12C197.63 318.12 215.75 314.39 240.63 307.03C250.041 304.24 260.059 304.24 269.47 307.03C294.33 314.39 312.47 318.12 323.47 318.12C335.94 318.12 345.6 311.95 350.67 300.76C352.844 295.849 354.036 290.559 354.18 285.19C354.18 283.874 353.92 282.571 353.416 281.356C352.911 280.141 352.172 279.037 351.24 278.108C350.309 277.179 349.203 276.443 347.986 275.943C346.769 275.442 345.466 275.186 344.15 275.19Z" fill="black"></path>
</svg><style>@media (prefers-color-scheme: light) { :root { filter: none; } }
@media (prefers-color-scheme: dark) { :root { filter: none; } }
</style></svg>